<svg version="1.1" id="Layer_1" xmlns="http://www.w3.org/2000/svg" xmlns:xlink="http://www.w3.org/1999/xlink" x="0px" y="0px"
	 width="100%" viewBox="0 0 640 640" enable-background="new 0 0 640 640" xml:space="preserve">
<path fill="#000000" opacity="1.000000" stroke="none" 
	d="
M136.091248,496.000000 
	C136.090591,438.848694 136.191147,382.197052 135.981049,325.546509 
	C135.949066,316.921906 138.490204,310.861664 145.462433,305.113495 
	C196.729172,262.847443 247.607574,220.110306 298.598694,177.510056 
	C303.836853,173.133881 308.992432,168.658951 314.221527,164.271744 
	C319.384796,159.939713 322.894043,159.833237 327.989441,164.083694 
	C356.256104,187.663055 384.452301,211.327011 412.740417,234.880554 
	C438.720947,256.512695 464.797485,278.029541 490.805542,299.628662 
	C494.904419,303.032684 498.854004,306.616028 502.893250,310.092468 
	C505.992737,312.760010 506.362885,316.272430 506.358429,320.074432 
	C506.309143,362.062988 506.324921,404.051636 506.326843,446.040253 
	C506.327942,470.200378 506.340271,494.360504 506.338470,518.520630 
	C506.337769,527.658447 503.866119,530.233765 494.921417,530.237305 
	C452.432922,530.254272 409.944427,530.256226 367.455933,530.228577 
	C358.554016,530.222778 355.810669,527.434814 355.806427,518.579834 
	C355.791962,488.254730 355.675079,457.928650 355.910492,427.605408 
	C355.950623,422.432098 354.332764,421.119415 349.367554,421.188263 
	C330.376282,421.451477 311.377991,421.423187 292.385376,421.221130 
	C287.875549,421.173157 286.265991,422.442535 286.294800,427.130585 
	C286.485016,458.120941 286.399567,489.112915 286.459656,520.104248 
	C286.473541,527.264221 283.919312,530.155090 276.675140,530.224182 
	C265.179321,530.333801 253.681656,530.244446 242.184784,530.243713 
	C211.026566,530.241577 179.868332,530.248901 148.710114,530.236755 
	C138.524353,530.232849 136.160202,527.834351 136.112198,517.492065 
	C136.079712,510.494812 136.096390,503.497345 136.091248,496.000000 
M183.533218,295.069885 
	C174.307632,302.723572 165.096268,310.394531 155.846542,318.018890 
	C153.501999,319.951447 152.471863,322.201355 152.473923,325.360291 
	C152.513748,386.173798 152.482422,446.987366 152.342178,507.800690 
	C152.332092,512.176758 153.416763,513.896606 158.212814,513.869690 
	C193.533966,513.670959 228.857117,513.673523 264.178467,513.849426 
	C269.110901,513.874084 270.803284,512.590271 270.764099,507.416016 
	C270.535736,477.260559 270.655731,447.102478 270.654236,416.945282 
	C270.653748,407.009125 272.718872,404.868652 282.587463,404.860474 
	C308.246063,404.839203 333.904694,404.859039 359.563293,404.861542 
	C370.170349,404.862579 372.269135,407.051453 372.261169,417.878021 
	C372.239105,447.868591 372.327698,477.859589 372.164978,507.849274 
	C372.140564,512.344849 373.381195,513.890076 378.066956,513.866638 
	C413.388306,513.689453 448.711273,513.696838 484.032806,513.853882 
	C488.612518,513.874207 490.040100,512.473511 490.030853,507.881073 
	C489.908936,447.400330 489.911346,386.919128 490.049286,326.438416 
	C490.059113,322.128082 488.564362,319.414276 485.325989,316.764130 
	C469.471069,303.789276 453.780487,290.613251 438.056274,277.479095 
	C400.346100,245.980377 362.623260,214.496674 324.998230,182.896500 
	C322.042847,180.414368 320.246277,180.747604 317.451385,183.112747 
	C300.927277,197.095993 284.210785,210.851578 267.598419,224.730942 
	C239.741470,248.004944 211.914062,271.314301 183.533218,295.069885 
z"/>
<path fill="#000000" opacity="1.000000" stroke="none" 
	d="
M234.695496,182.683289 
	C260.557648,160.881424 285.356049,138.340332 312.457733,118.606834 
	C321.258606,112.198677 321.634521,112.357025 330.172211,118.916534 
	C367.584961,147.660797 402.775635,179.050858 438.320190,210.007050 
	C476.503052,243.260956 514.365234,276.883087 552.375244,310.335571 
	C554.250244,311.985748 556.260986,313.484283 558.103333,315.168518 
	C562.015747,318.745056 562.615417,324.228607 559.551025,327.612427 
	C556.418457,331.071533 551.751038,331.264496 547.470825,327.625824 
	C534.397766,316.512207 521.456970,305.243103 508.452881,294.048248 
	C478.029968,267.857971 447.591400,241.685959 417.175751,215.487259 
	C387.767120,190.155930 358.446686,164.721680 328.943573,139.500961 
	C319.400208,131.342804 322.679260,131.734573 313.584625,139.534424 
	C265.288757,180.954575 217.124542,222.528259 168.929367,264.065704 
	C144.710342,284.939087 120.522263,305.848358 96.320511,326.741760 
	C95.942116,327.068451 95.583641,327.420319 95.188972,327.725677 
	C90.821709,331.104584 86.186050,331.043457 83.097130,327.574158 
	C79.805145,323.876770 80.237854,318.836060 84.383018,315.155640 
	C102.441536,299.121887 120.546211,283.140106 138.639694,267.145752 
	C139.388016,266.484222 140.155273,265.832428 140.976028,265.266479 
	C147.515015,260.757690 150.026230,254.945068 149.796173,246.658630 
	C149.033600,219.188934 149.126556,191.695023 148.943390,164.210037 
	C148.895645,157.046341 149.115601,156.876526 156.183670,156.866043 
	C172.514450,156.841843 188.846817,156.976944 205.175125,156.773254 
	C209.737839,156.716339 211.349701,158.202271 211.238510,162.827774 
	C210.970276,173.986176 211.120804,185.155365 211.167435,196.319916 
	C211.174759,198.069321 210.612595,199.950760 212.261337,202.159576 
	C219.715378,195.690399 227.073242,189.304688 234.695496,182.683289 
M180.546677,230.027435 
	C184.433472,226.644730 188.283401,223.218231 192.224655,219.900238 
	C193.870529,218.514648 194.708984,216.954941 194.701248,214.756897 
	C194.657867,202.450699 194.632156,190.143555 194.751801,177.838211 
	C194.786057,174.315704 193.256607,173.186554 189.922623,173.262360 
	C183.606491,173.405991 177.275589,173.498184 170.968124,173.219910 
	C166.602768,173.027313 165.192093,174.617157 165.235352,178.975159 
	C165.430130,198.597107 165.322784,218.221939 165.380341,237.845566 
	C165.384369,239.221405 164.749435,240.860474 166.732773,242.247009 
	C171.117828,238.374496 175.572205,234.440750 180.546677,230.027435 
z"/>
</svg>